<svg xmlns="http://www.w3.org/2000/svg" fill="none" viewBox="0 0 256 256">
  <path fill="#fff" d="M204.8 0H51.2C22.923 0 0 22.923 0 51.2v153.6C0 233.077 22.923 256 51.2 256h153.6c28.277 0 51.2-22.923 51.2-51.2V51.2C256 22.923 233.077 0 204.8 0z"/>
  <g clip-path="url(#clip0)">
    <path fill="#E74A33" d="M145.484 76.008h28.954c11.81 0 22.957-.493 33.266 6.478C217.854 89.303 224 101.11 224 113.42c0 12.134-4.985 23.771-14.636 31.416-10.145 8.169-24.447 7.512-36.591 7.512h-4.486v27.037h-22.803V76.008zm44.725 53.273c6.714-2.194 11.221-8.063 11.221-15.257 0-7.539-5.021-12.898-11.889-14.743-5.022-1.336-12.064-1.008-17.097-1.008h-4.157v32.339h4.189c5.696 0 12.229.345 17.76-1.336l-.027.005z"/>
    <path fill="#27272A" d="M32 76.008h22.803v81.112h22.803V76.008h22.803v81.112h22.802V76.008h22.803v103.377H32V76.008z"/>
  </g>
  <defs>
    <clipPath id="clip0">
      <path fill="#fff" d="M0 0h192v103.385H0z" transform="translate(32 76)"/>
    </clipPath>
  </defs>
</svg>
