<svg xmlns="http://www.w3.org/2000/svg" viewBox="0 0 214 37" alt="ПРОСВЕТ">
  <path fill="#fff" d="M26.729 1.2H.52V36H4.6V4.752h18.047V36h4.08V1.2zm18.055 0H35.28V36h4.08V21.84h5.424c8.976 0 14.352-2.112 14.352-10.272 0-3.936-1.248-6.624-3.696-8.112-2.448-1.488-6-2.256-10.656-2.256zM39.36 4.704h5.76c6 0 9.84 1.104 9.84 6.864s-3.792 6.768-9.84 6.768h-5.76V4.704zm39.778 31.92c9.84 0 16.224-7.44 16.224-18.048 0-10.608-6.384-18-16.224-18-9.792 0-16.176 7.536-16.176 18 0 10.512 6.384 18.048 16.176 18.048zm0-3.504c-6.816 0-11.952-5.328-11.952-14.544 0-9.168 5.136-14.496 11.952-14.496s12.048 5.328 12.048 14.496c0 9.216-5.232 14.544-12.048 14.544zm38.929 0c-8.256 0-13.92-5.232-13.92-14.496 0-9.312 5.568-14.544 13.968-14.544 3.024 0 6 .768 8.112 1.872V2.16c-2.112-1.008-5.184-1.584-8.448-1.584-10.752-.144-18 7.68-17.856 18 0 10.512 6.672 18.048 17.808 18.048 3.024 0 5.856-.528 8.544-1.584v-3.792c-2.688 1.248-5.424 1.872-8.208 1.872zM132.339 36h12.096c7.44 0 12.288-3.216 12.288-10.128 0-4.368-2.016-7.008-5.712-8.352 2.832-1.344 4.224-4.128 4.224-7.728 0-3.168-1.104-5.376-3.264-6.672-2.16-1.296-5.04-1.92-8.736-1.92h-10.896V36zm4.08-31.344h7.44c4.56 0 7.248 1.824 7.248 5.664 0 4.032-2.352 6.048-7.104 6.048h-7.584V4.656zm0 14.976h7.776c5.712 0 8.304 1.92 8.304 6.288 0 4.272-2.688 6.576-8.016 6.576h-8.064V19.632zM184.232 36v-3.552h-16.944V19.824h15.84v-3.552h-15.84V4.752h16.944V1.2h-21.024V36h21.024zm18.329 0V4.752h10.944V1.2h-25.968v3.552h10.944V36h4.08z"/>
</svg>
