<svg xmlns="http://www.w3.org/2000/svg" id="e6c81541-67f6-44a0-a5c8-aa7b7a990d43" preserveAspectRatio="xMidYMid meet" viewBox="0 -.504 362.06 195.014">
  <path fill="#e8442a" d="M214-.49h54.6c22.27 0 43.29-.93 62.73 12.22 19.14 12.86 30.73 35.13 30.73 58.35 0 22.89-9.4 44.84-27.6 59.26-19.13 15.41-46.1 14.17-69 14.17H257v51h-43zM298.34 100C311 95.86 319.5 84.79 319.5 71.22c0-14.22-9.47-24.33-22.42-27.81-9.47-2.52-22.75-1.9-32.24-1.9H257v61h7.9c10.74 0 23.06.65 33.49-2.52z"/>
  <path d="M0-.49h43v153h43v-153h43v153h43v-153h43v195H0z"/>
</svg>
